<svg width="17" height="18" viewBox="0 0 17 18" fill="none" xmlns="http://www.w3.org/2000/svg">
                                        <path d="M15.8901 3.09765L14.3901 1.76431C14.2436 1.63409 14.0063 1.63409 13.8598 1.76431C13.7133 1.89453 13.7133 2.10547 13.8598 2.23565L15.0947 3.33331L13.8598 4.43096C13.7895 4.49346 13.75 4.57809 13.75 4.66665V5.66665C13.75 6.40202 14.4227 6.99999 15.25 6.99999V12.6666C15.25 12.8505 15.0819 13 14.875 13C14.6681 13 14.5 12.8506 14.5 12.6666V12C14.5 11.4485 13.9953 11 13.375 11H13V2.33334C13 1.59797 12.3273 1 11.5 1H4.00001C3.17275 1 2.50001 1.59797 2.50001 2.33334V14.3333C1.67275 14.3333 1 14.9313 1 15.6667V16.6667C1 16.8509 1.16773 17 1.37501 17H14.125C14.3323 17 14.5 16.8509 14.5 16.6667V15.6667C14.5 14.9313 13.8273 14.3333 13 14.3333V11.6667H13.375C13.5819 11.6667 13.75 11.8161 13.75 12V12.6667C13.75 13.2181 14.2546 13.6667 14.875 13.6667C15.4954 13.6667 16 13.2181 16 12.6667V3.33334C16 3.24478 15.9604 3.16015 15.8901 3.09765ZM3.25003 2.33334C3.25003 1.96584 3.58658 1.66669 4.00001 1.66669H11.5C11.9134 1.66669 12.25 1.96584 12.25 2.33334V14.3333H3.24999L3.25003 2.33334ZM13.75 15.6666V16.3333H1.75002V15.6666C1.75002 15.2991 2.08657 15 2.50001 15H13C13.4134 15 13.75 15.2991 13.75 15.6666ZM15.25 6.33333C14.8365 6.33333 14.5 6.03418 14.5 5.66668V4.80468L15.25 4.13803V6.33333Z" fill="#0D274E" stroke="#0D274E" stroke-width="0.2"></path>
                                        <path d="M11.041 2.52344H4.29103C4.08375 2.52344 3.91602 2.66929 3.91602 2.84954V6.76876C3.91602 6.94901 4.08375 7.09487 4.29103 7.09487H11.041C11.2483 7.09487 11.416 6.94901 11.416 6.76876V2.84951C11.416 2.66929 11.2483 2.52344 11.041 2.52344ZM10.666 6.44265H4.666V3.17562H10.666V6.44265Z" fill="#0D274E" stroke="#0D274E" stroke-width="0.2"></path>
                                        </svg>